<?xml version="1.0" standalone="no"?>
<!DOCTYPE svg PUBLIC "-//W3C//DTD SVG 20010904//EN"
 "http://www.w3.org/TR/2001/REC-SVG-20010904/DTD/svg10.dtd">
<svg version="1.0" xmlns="http://www.w3.org/2000/svg"
 width="700.000000pt" height="700.000000pt" viewBox="0 0 700.000000 700.000000"
 preserveAspectRatio="xMidYMid meet">
<metadata>
Created by potrace 1.11, written by Peter Selinger 2001-2013
</metadata>
<g transform="translate(0.000000,700.000000) scale(0.100000,-0.100000)"
fill="#000000" stroke="none">
<path d="M2157 6984 c-316 -61 -583 -301 -670 -604 -33 -112 -38 -147 -38
-255 0 -492 404 -887 891 -870 152 5 197 14 318 64 194 80 365 244 451 432 48
106 50 109 61 162 47 219 26 412 -68 602 -114 231 -338 407 -595 465 -75 17
-270 19 -350 4z"/>
<path d="M5018 6514 c-118 -30 -209 -104 -259 -209 -53 -112 -59 -211 -19
-318 59 -156 189 -252 355 -261 156 -8 294 67 373 204 42 71 60 195 41 281
-49 219 -276 359 -491 303z"/>
<path d="M2160 4363 c-191 -40 -360 -134 -488 -273 -110 -119 -191 -293 -217
-470 -8 -50 -9 -216 -2 -227 3 -5 8 -29 11 -54 9 -66 50 -181 91 -254 160
-287 459 -460 783 -454 73 2 104 5 198 25 33 6 146 50 195 75 228 117 408 368
451 629 59 354 -101 701 -410 894 -55 35 -179 85 -257 104 -80 19 -273 22
-355 5z"/>
<path d="M5030 3896 c-217 -46 -354 -263 -305 -486 19 -89 95 -194 177 -247
170 -107 410 -65 529 94 67 88 89 162 84 271 -12 247 -239 419 -485 368z"/>
<path d="M2140 1730 c-256 -58 -464 -214 -588 -441 -34 -62 -78 -185 -88 -244
-3 -21 -8 -47 -10 -59 -9 -43 -5 -213 6 -261 6 -27 13 -59 16 -69 13 -64 59
-173 107 -251 15 -26 105 -134 132 -160 39 -38 110 -91 160 -122 54 -32 192
-88 240 -98 17 -3 41 -8 55 -11 14 -3 70 -7 125 -9 247 -10 464 76 642 253
311 308 344 796 77 1148 -120 159 -288 268 -490 319 -103 26 -279 28 -384 5z"/>
<path d="M4985 1252 c-241 -80 -346 -373 -210 -587 80 -125 187 -185 335 -189
358 -10 544 429 289 683 -110 110 -260 144 -414 93z"/>
</g>
</svg>
